<svg version="1.1" xmlns="http://www.w3.org/2000/svg" viewBox="0 0 576.6000823974609 374.38742519946874" width="576.6000823974609" height="374.38742519946874">
  <!-- svg-source:excalidraw -->
  
  <defs>
    
    
  </defs>
  <rect x="0" y="0" width="576.6000823974609" height="374.38742519946874" fill="transparent"/><g stroke-linecap="round" transform="translate(191.3309974347867 81.62542372450616) rotate(0 115.67536423975736 141.3810007374813)"><path d="M0.95 -1.82 L230.79 -1.16 L229.69 282.3 L1.94 281.03" stroke="none" stroke-width="0" fill="#ffec99"/><path d="M0 0 C89.09 0.55, 175.98 1.63, 231.35 0 M0 0 C47.79 1.13, 95.05 0, 231.35 0 M231.35 0 C231.09 92.35, 230.17 186.57, 231.35 282.76 M231.35 0 C232.62 79.21, 233.45 156.87, 231.35 282.76 M231.35 282.76 C148.62 282.75, 65.52 280.56, 0 282.76 M231.35 282.76 C155.3 284.69, 77.52 284.16, 0 282.76 M0 282.76 C-0.7 180.66, -1.05 76.8, 0 0 M0 282.76 C-0.64 197.21, 0.48 111.12, 0 0" stroke="#1971c2" stroke-width="1" fill="none"/></g><g stroke-linecap="round" transform="translate(185.3026490856987 75.37819980053132) rotate(0 115.67536423975736 141.3810007374813)"><path d="M-0.56 -1.16 L229.69 -0.46 L233.29 281.03 L-0.39 281.47" stroke="none" stroke-width="0" fill="#ffec99"/><path d="M0 0 C63.51 1.09, 123.15 0.27, 231.35 0 M0 0 C61.12 -1.79, 124.16 -1.81, 231.35 0 M231.35 0 C233.8 107.15, 232.99 215.55, 231.35 282.76 M231.35 0 C230.65 106.39, 230.65 213.85, 231.35 282.76 M231.35 282.76 C178.65 283.81, 128.71 285.29, 0 282.76 M231.35 282.76 C141.58 282.98, 52.85 283.87, 0 282.76 M0 282.76 C-0.68 215.85, -1.07 146.83, 0 0 M0 282.76 C2.42 215.44, 2.37 147.58, 0 0" stroke="#1971c2" stroke-width="1" fill="none"/></g><g stroke-linecap="round"><g transform="translate(200.0089493742007 108.23339702940416) rotate(0 102.82254599089549 0)"><path d="M0.73 -1.11 C35.04 -1.31, 171.68 -0.69, 205.8 -0.39 M-0.35 0.92 C33.82 0.82, 170.78 1.31, 204.93 0.95" stroke="#1971c2" stroke-width="1" fill="none"/></g></g><mask/><g stroke-linecap="round"><g transform="translate(342.20992860375964 89.71863817626831) rotate(0 0 129.52819535559593)"><path d="M0.15 -0.39 C-0.01 43.09, 0.01 216.67, -0.21 259.76 M-1.23 -1.64 C-1.63 41.6, -1.66 214.57, -1.27 258.01" stroke="#1971c2" stroke-width="1" fill="none"/></g></g><mask/><g transform="translate(211.0082855834262 88.23101804939279) rotate(0 8.51312255859375 8.033011405538716)"><text x="0" y="0" font-family="Virgil, Segoe UI Emoji" font-size="12.852818248861931px" fill="#1971c2" text-anchor="start" style="white-space: pre;" direction="ltr" dominant-baseline="text-before-edge">ID</text></g><g transform="translate(275.2723768277292 88.23101804939279) rotate(0 16.004661560058594 8.033011405538716)"><text x="0" y="0" font-family="Virgil, Segoe UI Emoji" font-size="12.852818248861933px" fill="#1971c2" text-anchor="start" style="white-space: pre;" direction="ltr" dominant-baseline="text-before-edge">Name</text></g><g transform="translate(352.38928632090665 88.23101804939279) rotate(0 19.94317626953125 8.033011405538716)"><text x="0" y="0" font-family="Virgil, Segoe UI Emoji" font-size="12.852818248861935px" fill="#1971c2" text-anchor="start" style="white-space: pre;" direction="ltr" dominant-baseline="text-before-edge">Salary</text></g><g transform="translate(275.272376827731 113.93665454711584) rotate(0 26.99091832261007 112.46215967754196)"><text x="0" y="0" font-family="Virgil, Segoe UI Emoji" font-size="12.852818248861935px" fill="#1971c2" text-anchor="start" style="white-space: pre;" direction="ltr" dominant-baseline="text-before-edge">SMITH</text><text x="0" y="16.06602281107742" font-family="Virgil, Segoe UI Emoji" font-size="12.852818248861935px" fill="#1971c2" text-anchor="start" style="white-space: pre;" direction="ltr" dominant-baseline="text-before-edge">ALLEN</text><text x="0" y="32.13204562215484" font-family="Virgil, Segoe UI Emoji" font-size="12.852818248861935px" fill="#1971c2" text-anchor="start" style="white-space: pre;" direction="ltr" dominant-baseline="text-before-edge">WARD</text><text x="0" y="48.198068433232265" font-family="Virgil, Segoe UI Emoji" font-size="12.852818248861935px" fill="#1971c2" text-anchor="start" style="white-space: pre;" direction="ltr" dominant-baseline="text-before-edge">JONES</text><text x="0" y="64.26409124430968" font-family="Virgil, Segoe UI Emoji" font-size="12.852818248861935px" fill="#1971c2" text-anchor="start" style="white-space: pre;" direction="ltr" dominant-baseline="text-before-edge">MARTIN</text><text x="0" y="80.3301140553871" font-family="Virgil, Segoe UI Emoji" font-size="12.852818248861935px" fill="#1971c2" text-anchor="start" style="white-space: pre;" direction="ltr" dominant-baseline="text-before-edge">BLAKE</text><text x="0" y="96.39613686646453" font-family="Virgil, Segoe UI Emoji" font-size="12.852818248861935px" fill="#1971c2" text-anchor="start" style="white-space: pre;" direction="ltr" dominant-baseline="text-before-edge">CLARK</text><text x="0" y="112.46215967754195" font-family="Virgil, Segoe UI Emoji" font-size="12.852818248861935px" fill="#1971c2" text-anchor="start" style="white-space: pre;" direction="ltr" dominant-baseline="text-before-edge">SCOTT</text><text x="0" y="128.52818248861936" font-family="Virgil, Segoe UI Emoji" font-size="12.852818248861935px" fill="#1971c2" text-anchor="start" style="white-space: pre;" direction="ltr" dominant-baseline="text-before-edge">KING</text><text x="0" y="144.5942052996968" font-family="Virgil, Segoe UI Emoji" font-size="12.852818248861935px" fill="#1971c2" text-anchor="start" style="white-space: pre;" direction="ltr" dominant-baseline="text-before-edge">TURNER</text><text x="0" y="160.6602281107742" font-family="Virgil, Segoe UI Emoji" font-size="12.852818248861935px" fill="#1971c2" text-anchor="start" style="white-space: pre;" direction="ltr" dominant-baseline="text-before-edge">ADAMS</text><text x="0" y="176.72625092185163" font-family="Virgil, Segoe UI Emoji" font-size="12.852818248861935px" fill="#1971c2" text-anchor="start" style="white-space: pre;" direction="ltr" dominant-baseline="text-before-edge">JAMES</text><text x="0" y="192.79227373292906" font-family="Virgil, Segoe UI Emoji" font-size="12.852818248861935px" fill="#1971c2" text-anchor="start" style="white-space: pre;" direction="ltr" dominant-baseline="text-before-edge">FORD</text><text x="0" y="208.85829654400646" font-family="Virgil, Segoe UI Emoji" font-size="12.852818248861935px" fill="#1971c2" text-anchor="start" style="white-space: pre;" direction="ltr" dominant-baseline="text-before-edge">MILLER</text></g><g transform="translate(352.3892863208998 113.93665454711584) rotate(0 17.993945548406714 112.46215967754196)"><text x="0" y="0" font-family="Virgil, Segoe UI Emoji" font-size="12.852818248861935px" fill="#1971c2" text-anchor="start" style="white-space: pre;" direction="ltr" dominant-baseline="text-before-edge">800</text><text x="0" y="16.06602281107742" font-family="Virgil, Segoe UI Emoji" font-size="12.852818248861935px" fill="#1971c2" text-anchor="start" style="white-space: pre;" direction="ltr" dominant-baseline="text-before-edge">1600</text><text x="0" y="32.13204562215484" font-family="Virgil, Segoe UI Emoji" font-size="12.852818248861935px" fill="#1971c2" text-anchor="start" style="white-space: pre;" direction="ltr" dominant-baseline="text-before-edge">1250</text><text x="0" y="48.198068433232265" font-family="Virgil, Segoe UI Emoji" font-size="12.852818248861935px" fill="#1971c2" text-anchor="start" style="white-space: pre;" direction="ltr" dominant-baseline="text-before-edge">2975</text><text x="0" y="64.26409124430968" font-family="Virgil, Segoe UI Emoji" font-size="12.852818248861935px" fill="#1971c2" text-anchor="start" style="white-space: pre;" direction="ltr" dominant-baseline="text-before-edge">1250</text><text x="0" y="80.3301140553871" font-family="Virgil, Segoe UI Emoji" font-size="12.852818248861935px" fill="#1971c2" text-anchor="start" style="white-space: pre;" direction="ltr" dominant-baseline="text-before-edge">2850</text><text x="0" y="96.39613686646453" font-family="Virgil, Segoe UI Emoji" font-size="12.852818248861935px" fill="#1971c2" text-anchor="start" style="white-space: pre;" direction="ltr" dominant-baseline="text-before-edge">2450</text><text x="0" y="112.46215967754195" font-family="Virgil, Segoe UI Emoji" font-size="12.852818248861935px" fill="#1971c2" text-anchor="start" style="white-space: pre;" direction="ltr" dominant-baseline="text-before-edge">3000</text><text x="0" y="128.52818248861936" font-family="Virgil, Segoe UI Emoji" font-size="12.852818248861935px" fill="#1971c2" text-anchor="start" style="white-space: pre;" direction="ltr" dominant-baseline="text-before-edge">5000</text><text x="0" y="144.5942052996968" font-family="Virgil, Segoe UI Emoji" font-size="12.852818248861935px" fill="#1971c2" text-anchor="start" style="white-space: pre;" direction="ltr" dominant-baseline="text-before-edge">1500</text><text x="0" y="160.6602281107742" font-family="Virgil, Segoe UI Emoji" font-size="12.852818248861935px" fill="#1971c2" text-anchor="start" style="white-space: pre;" direction="ltr" dominant-baseline="text-before-edge">1100</text><text x="0" y="176.72625092185163" font-family="Virgil, Segoe UI Emoji" font-size="12.852818248861935px" fill="#1971c2" text-anchor="start" style="white-space: pre;" direction="ltr" dominant-baseline="text-before-edge">950</text><text x="0" y="192.79227373292906" font-family="Virgil, Segoe UI Emoji" font-size="12.852818248861935px" fill="#1971c2" text-anchor="start" style="white-space: pre;" direction="ltr" dominant-baseline="text-before-edge">3000</text><text x="0" y="208.85829654400646" font-family="Virgil, Segoe UI Emoji" font-size="12.852818248861935px" fill="#1971c2" text-anchor="start" style="white-space: pre;" direction="ltr" dominant-baseline="text-before-edge">1300</text></g><g transform="translate(211.00828558342755 113.93665454711584) rotate(0 16.708663723520544 112.46215967754196)"><text x="0" y="0" font-family="Virgil, Segoe UI Emoji" font-size="12.852818248861938px" fill="#1971c2" text-anchor="start" style="white-space: pre;" direction="ltr" dominant-baseline="text-before-edge">7369</text><text x="0" y="16.066022811077424" font-family="Virgil, Segoe UI Emoji" font-size="12.852818248861938px" fill="#1971c2" text-anchor="start" style="white-space: pre;" direction="ltr" dominant-baseline="text-before-edge">7499</text><text x="0" y="32.13204562215485" font-family="Virgil, Segoe UI Emoji" font-size="12.852818248861938px" fill="#1971c2" text-anchor="start" style="white-space: pre;" direction="ltr" dominant-baseline="text-before-edge">7521</text><text x="0" y="48.19806843323227" font-family="Virgil, Segoe UI Emoji" font-size="12.852818248861938px" fill="#1971c2" text-anchor="start" style="white-space: pre;" direction="ltr" dominant-baseline="text-before-edge">7566</text><text x="0" y="64.2640912443097" font-family="Virgil, Segoe UI Emoji" font-size="12.852818248861938px" fill="#1971c2" text-anchor="start" style="white-space: pre;" direction="ltr" dominant-baseline="text-before-edge">7654</text><text x="0" y="80.33011405538713" font-family="Virgil, Segoe UI Emoji" font-size="12.852818248861938px" fill="#1971c2" text-anchor="start" style="white-space: pre;" direction="ltr" dominant-baseline="text-before-edge">7698</text><text x="0" y="96.39613686646454" font-family="Virgil, Segoe UI Emoji" font-size="12.852818248861938px" fill="#1971c2" text-anchor="start" style="white-space: pre;" direction="ltr" dominant-baseline="text-before-edge">7782</text><text x="0" y="112.46215967754196" font-family="Virgil, Segoe UI Emoji" font-size="12.852818248861938px" fill="#1971c2" text-anchor="start" style="white-space: pre;" direction="ltr" dominant-baseline="text-before-edge">7788</text><text x="0" y="128.5281824886194" font-family="Virgil, Segoe UI Emoji" font-size="12.852818248861938px" fill="#1971c2" text-anchor="start" style="white-space: pre;" direction="ltr" dominant-baseline="text-before-edge">7839</text><text x="0" y="144.59420529969682" font-family="Virgil, Segoe UI Emoji" font-size="12.852818248861938px" fill="#1971c2" text-anchor="start" style="white-space: pre;" direction="ltr" dominant-baseline="text-before-edge">7844</text><text x="0" y="160.66022811077426" font-family="Virgil, Segoe UI Emoji" font-size="12.852818248861938px" fill="#1971c2" text-anchor="start" style="white-space: pre;" direction="ltr" dominant-baseline="text-before-edge">7876</text><text x="0" y="176.72625092185166" font-family="Virgil, Segoe UI Emoji" font-size="12.852818248861938px" fill="#1971c2" text-anchor="start" style="white-space: pre;" direction="ltr" dominant-baseline="text-before-edge">7900</text><text x="0" y="192.7922737329291" font-family="Virgil, Segoe UI Emoji" font-size="12.852818248861938px" fill="#1971c2" text-anchor="start" style="white-space: pre;" direction="ltr" dominant-baseline="text-before-edge">7902</text><text x="0" y="208.85829654400652" font-family="Virgil, Segoe UI Emoji" font-size="12.852818248861938px" fill="#1971c2" text-anchor="start" style="white-space: pre;" direction="ltr" dominant-baseline="text-before-edge">7934</text></g><g stroke-linecap="round"><g transform="translate(264.6240975064443 88.9598584426277) rotate(0 0 129.52819535559593)"><path d="M0.93 0.94 C0.83 44.28, -0.59 216.94, -0.63 259.8 M-0.05 0.39 C0.25 43.41, 1.7 214.98, 1.75 258.07" stroke="#1971c2" stroke-width="1" fill="none"/></g></g><mask/><g transform="translate(493.16015625 10) rotate(0 36.71996307373047 12.5)"><text x="0" y="0" font-family="Virgil, Segoe UI Emoji" font-size="20px" fill="#1971c2" text-anchor="start" style="white-space: pre;" direction="ltr" dominant-baseline="text-before-edge">Columns</text></g><g stroke-linecap="round"><g transform="translate(473.52734375 21.827627912341995) rotate(0 -75.68145584806774 16.6059823363902)"><path d="M-0.86 0.75 C-16.74 0.86, -71.61 -5.09, -96.5 0.27 C-121.39 5.62, -141.11 27.36, -150.19 32.88 M0.89 0.1 C-15.05 0.37, -72.24 -4.33, -97.45 1.32 C-122.65 6.97, -141.5 28.48, -150.33 34.02" stroke="#1971c2" stroke-width="2" fill="none"/></g><g transform="translate(473.52734375 21.827627912341995) rotate(0 -75.68145584806774 16.6059823363902)"><path d="M-134.72 8.4 C-136.7 13.45, -142.63 20.57, -150.33 34.02 M-134.72 8.4 C-138.52 15.96, -142.14 21.8, -150.33 34.02" stroke="#1971c2" stroke-width="2" fill="none"/></g><g transform="translate(473.52734375 21.827627912341995) rotate(0 -75.68145584806774 16.6059823363902)"><path d="M-121.91 24.43 C-126.41 26.16, -134.92 30.05, -150.33 34.02 M-121.91 24.43 C-129.25 27.65, -136.36 29.13, -150.33 34.02" stroke="#1971c2" stroke-width="2" fill="none"/></g></g><mask/><g transform="translate(10 204.95703125) rotate(0 23.839981079101562 12.5)"><text x="0" y="0" font-family="Virgil, Segoe UI Emoji" font-size="20px" fill="#1971c2" text-anchor="start" style="white-space: pre;" direction="ltr" dominant-baseline="text-before-edge">Rows</text></g><g stroke-linecap="round"><g transform="translate(78.75 217.12109375) rotate(0 35.71484375 0.16796875)"><path d="M-0.06 1.03 C11.51 1.19, 58.48 0.9, 70.47 0.59 M-1.54 0.53 C10.29 0.34, 60.52 -1.29, 72.68 -1.4" stroke="#1971c2" stroke-width="2" fill="none"/></g><g transform="translate(78.75 217.12109375) rotate(0 35.71484375 0.16796875)"><path d="M44.72 9.49 C57.39 3.65, 67.01 1.8, 72.68 -1.4 M44.72 9.49 C49.47 6.73, 56.7 4.87, 72.68 -1.4" stroke="#1971c2" stroke-width="2" fill="none"/></g><g transform="translate(78.75 217.12109375) rotate(0 35.71484375 0.16796875)"><path d="M44.26 -11.03 C57.04 -8.86, 66.84 -2.7, 72.68 -1.4 M44.26 -11.03 C49.03 -9.61, 56.35 -7.3, 72.68 -1.4" stroke="#1971c2" stroke-width="2" fill="none"/></g></g><mask/></svg>