<svg version="1.1" xmlns="http://www.w3.org/2000/svg" viewBox="0 0 318.45445152879563 291.3203125" width="318.45445152879563" height="291.3203125">
  <!-- svg-source:excalidraw -->
  
  <defs>
    <style class="style-fonts">
      @font-face {
        font-family: "Virgil";
        src: url("http://localhost:3001//dist/excalidraw-assets/Virgil.woff2");
      }
      @font-face {
        font-family: "Cascadia";
        src: url("http://localhost:3001//dist/excalidraw-assets/Cascadia.woff2");
      }
      @font-face {
        font-family: "Assistant";
        src: url("http://localhost:3001//dist/excalidraw-assets/Assistant-Regular.woff2");
      }
    </style>
    
  </defs>
  <rect x="0" y="0" width="318.45445152879563" height="291.3203125" fill="transparent"/><g stroke-opacity="0.7" fill-opacity="0.7" stroke-linecap="round" transform="translate(10 10) rotate(0 82.42644628458646 82.42644628458646)"><path d="M43.46 9.23 C51.97 3.25, 64.41 0.88, 75.59 0.18 C86.77 -0.51, 99.84 1.22, 110.53 5.06 C121.22 8.89, 131.57 15.32, 139.73 23.2 C147.89 31.09, 155.25 42.18, 159.48 52.37 C163.7 62.56, 165.68 73.43, 165.1 84.35 C164.51 95.27, 160.97 107.81, 155.98 117.9 C150.99 127.98, 143.58 137.63, 135.16 144.86 C126.74 152.08, 116.27 158.19, 105.45 161.23 C94.64 164.27, 81.33 164.44, 70.26 163.1 C59.2 161.76, 48.48 159.03, 39.07 153.19 C29.66 147.34, 20.27 137.27, 13.81 128.02 C7.36 118.77, 2.13 108.65, 0.33 97.69 C-1.46 86.73, 0.28 73.06, 3.05 62.24 C5.82 51.42, 9.33 42.02, 16.97 32.78 C24.61 23.54, 42.26 11.39, 48.9 6.8 C55.54 2.21, 56.09 3.89, 56.81 5.22 M65.14 2.1 C75.27 -1.41, 89.08 -1.75, 99.98 0.71 C110.89 3.18, 121.54 10.06, 130.57 16.9 C139.6 23.73, 148.55 32.3, 154.17 41.72 C159.79 51.13, 163.24 62.32, 164.27 73.38 C165.31 84.44, 163.76 97.2, 160.36 108.07 C156.97 118.94, 151.4 130.36, 143.91 138.58 C136.42 146.79, 125.81 153.11, 115.4 157.37 C104.99 161.64, 92.66 164.3, 81.45 164.16 C70.24 164.02, 58.11 161.09, 48.14 156.54 C38.17 151.99, 28.94 144.93, 21.64 136.86 C14.34 128.79, 7.67 118.6, 4.35 108.12 C1.02 97.63, 0.79 85.33, 1.7 73.95 C2.61 62.58, 4.27 49.55, 9.82 39.87 C15.37 30.18, 25.93 22.08, 35 15.84 C44.06 9.6, 58.97 4.35, 64.21 2.42 C69.46 0.5, 66.06 3.22, 66.48 4.28" stroke="none" stroke-width="0" fill="#ffec99"/><path d="M85.73 0.26 C96.3 -0.74, 108.14 3.2, 118.32 8.3 C128.5 13.39, 139.4 22.12, 146.81 30.83 C154.23 39.55, 160.03 50.11, 162.81 60.59 C165.59 71.07, 165.38 82.85, 163.5 93.69 C161.63 104.54, 157.54 116.19, 151.56 125.66 C145.58 135.14, 136.99 144.32, 127.62 150.53 C118.25 156.74, 106.42 160.86, 95.32 162.91 C84.21 164.95, 71.53 165.43, 60.99 162.78 C50.46 160.14, 40.83 153.92, 32.11 147.03 C23.39 140.14, 14.08 131.38, 8.68 121.42 C3.29 111.47, 0.34 98.73, -0.26 87.29 C-0.87 75.86, 0.96 63.18, 5.06 52.83 C9.16 42.48, 16.56 33.06, 24.35 25.18 C32.13 17.29, 40.54 9.76, 51.76 5.53 C62.98 1.3, 84.12 0.34, 91.65 -0.21 C99.19 -0.75, 97.22 0.91, 96.95 2.26 M117.35 7.13 C127.57 10.1, 137.1 18.78, 144.49 27.35 C151.88 35.91, 158.39 47.79, 161.67 58.54 C164.96 69.28, 165.51 81.02, 164.2 91.82 C162.9 102.63, 159.54 113.92, 153.85 123.36 C148.17 132.8, 139.5 141.82, 130.09 148.44 C120.69 155.06, 108.31 160.5, 97.43 163.08 C86.55 165.65, 75.33 166.22, 64.83 163.89 C54.32 161.56, 43.61 155.81, 34.4 149.1 C25.18 142.38, 15 133.42, 9.54 123.6 C4.09 113.78, 2.32 101.31, 1.65 90.18 C0.99 79.06, 2.19 67.31, 5.57 56.85 C8.94 46.39, 14.28 35.96, 21.91 27.44 C29.55 18.92, 40.89 10.11, 51.38 5.73 C61.87 1.35, 74.02 1.06, 84.87 1.17 C95.72 1.28, 111.45 5.16, 116.48 6.39 C121.5 7.62, 115.74 7.3, 115.03 8.57" stroke="#1e1e1e" stroke-width="2" fill="none"/></g><g stroke-opacity="0.7" fill-opacity="0.7" transform="translate(46.248020275556826 76.90406549377246) rotate(0 46.394126892089844 15.738081673874206)"><text x="46.394126892089844" y="0" font-family="Virgil, Segoe UI Emoji" font-size="25.18093067819872px" fill="#1e1e1e" text-anchor="middle" style="white-space: pre;" direction="ltr" dominant-baseline="text-before-edge">Sunlight</text></g><g stroke-opacity="0.7" fill-opacity="0.7" stroke-linecap="round" transform="translate(143.6015589596227 13.375959037632356) rotate(0 82.42644628458646 82.42644628458646)"><path d="M64.71 1.35 C74.73 -2.23, 87.62 -0.73, 98.42 1.66 C109.22 4.05, 120.42 9.31, 129.51 15.66 C138.59 22.02, 147.25 30.15, 152.94 39.77 C158.64 49.39, 162.27 62.17, 163.69 73.39 C165.11 84.62, 164.72 96.67, 161.47 107.12 C158.22 117.56, 151.78 127.86, 144.2 136.06 C136.63 144.26, 126.08 151.62, 116.01 156.31 C105.94 161, 94.71 163.87, 83.79 164.22 C72.88 164.57, 60.93 162.71, 50.52 158.43 C40.1 154.14, 28.97 146.89, 21.3 138.5 C13.64 130.12, 8.06 118.72, 4.52 108.13 C0.97 97.54, -1.02 85.79, 0.02 74.94 C1.06 64.09, 5.14 52.79, 10.75 43.03 C16.37 33.27, 24.09 23.48, 33.7 16.36 C43.3 9.25, 61.96 2.69, 68.4 0.35 C74.84 -2, 72.09 0.84, 72.32 2.28 M46.22 7.94 C54.83 2.16, 66.69 0.62, 77.4 0.06 C88.1 -0.5, 99.71 0.81, 110.47 4.59 C121.23 8.37, 133.97 14.49, 141.94 22.74 C149.9 31, 154.53 43.68, 158.28 54.1 C162.02 64.53, 164.73 74.4, 164.43 85.29 C164.12 96.19, 161.47 109.1, 156.44 119.47 C151.42 129.84, 143.08 140.32, 134.27 147.5 C125.47 154.69, 114.35 159.8, 103.62 162.58 C92.89 165.35, 81.09 166.07, 69.88 164.15 C58.67 162.22, 45.87 157.12, 36.37 151.04 C26.87 144.97, 18.64 136.8, 12.89 127.67 C7.14 118.54, 3.8 107.16, 1.87 96.27 C-0.06 85.39, -1.45 73.51, 1.31 62.37 C4.06 51.22, 11.41 38.15, 18.42 29.41 C25.44 20.67, 38.7 13.23, 43.39 9.94 C48.07 6.65, 45.73 8.68, 46.54 9.69" stroke="none" stroke-width="0" fill="#a5d8ff"/><path d="M119.24 8.84 C129.3 12.52, 138.21 20.99, 145.42 29.65 C152.63 38.31, 159.29 50.06, 162.49 60.82 C165.69 71.59, 166.5 83.4, 164.61 94.24 C162.72 105.08, 157.12 116.55, 151.14 125.88 C145.17 135.22, 137.92 143.95, 128.77 150.27 C119.63 156.6, 107.42 161.71, 96.27 163.83 C85.11 165.95, 72.67 165.8, 61.86 163.01 C51.04 160.22, 40.13 154.01, 31.36 147.1 C22.59 140.19, 14.34 131.41, 9.26 121.56 C4.19 111.72, 1.46 99.48, 0.9 88.02 C0.33 76.56, 2.2 63.4, 5.87 52.82 C9.53 42.23, 15.2 32.27, 22.89 24.5 C30.58 16.72, 41.45 10.08, 52.01 6.16 C62.58 2.25, 74.17 -0.04, 86.28 1.02 C98.39 2.08, 117.38 9.82, 124.68 12.53 C131.98 15.23, 130.86 16.25, 130.07 17.26 M88.39 -0.64 C99.12 -0.96, 112.18 5.74, 121.94 11.26 C131.7 16.77, 140 23.75, 146.97 32.46 C153.94 41.17, 161.04 52.51, 163.76 63.51 C166.48 74.51, 165.71 87.55, 163.29 98.47 C160.87 109.38, 155.59 119.9, 149.25 128.98 C142.91 138.06, 134.79 147.17, 125.23 152.95 C115.68 158.72, 102.71 162.28, 91.9 163.61 C81.1 164.93, 71.05 163.84, 60.39 160.88 C49.73 157.93, 36.51 152.79, 27.94 145.88 C19.37 138.97, 13.83 129.61, 8.98 119.42 C4.13 109.23, -0.53 96.1, -1.16 84.74 C-1.78 73.38, 0.94 61.76, 5.24 51.27 C9.54 40.79, 16.59 29.5, 24.64 21.82 C32.69 14.14, 42.71 8.75, 53.56 5.18 C64.41 1.62, 84.15 0.97, 89.75 0.45 C95.34 -0.06, 87.61 0.94, 87.15 2.1" stroke="#1e1e1e" stroke-width="2" fill="none"/></g><g stroke-opacity="0.7" fill-opacity="0.7" transform="translate(185.35141028986703 80.28002453140482) rotate(0 40.892295837402315 15.738081673874206)"><text x="40.892295837402344" y="0" font-family="Virgil, Segoe UI Emoji" font-size="25.18093067819872px" fill="#1e1e1e" text-anchor="middle" style="white-space: pre;" direction="ltr" dominant-baseline="text-before-edge">Income</text></g><g stroke-opacity="0.7" fill-opacity="0.7" stroke-linecap="round" transform="translate(78.48524603396822 116.46741993082708) rotate(0 82.42644628458646 82.42644628458646)"><path d="M81.93 0.85 C92.59 -0.73, 104.1 2.21, 114.27 6.41 C124.44 10.61, 135.15 17.7, 142.97 26.06 C150.79 34.41, 157.68 45.99, 161.18 56.54 C164.67 67.09, 164.99 78.28, 163.95 89.37 C162.9 100.47, 160.32 113.22, 154.9 123.14 C149.48 133.05, 140.49 142.31, 131.41 148.88 C122.32 155.45, 111.17 160.01, 100.41 162.54 C89.64 165.08, 77.76 166.28, 66.81 164.09 C55.86 161.9, 43.94 155.97, 34.69 149.4 C25.44 142.82, 17.04 133.98, 11.31 124.63 C5.58 115.28, 1.52 104.42, 0.32 93.29 C-0.88 82.17, 0.91 68.71, 4.13 57.86 C7.35 47.01, 12.42 36.68, 19.65 28.21 C26.88 19.73, 36.17 11.64, 47.52 7.02 C58.86 2.4, 79.92 1.12, 87.74 0.49 C95.55 -0.15, 94.48 1.77, 94.4 3.22 M44.63 7.52 C53.33 1.34, 66.5 -0.67, 77.7 -0.85 C88.9 -1.03, 101.18 2.01, 111.83 6.45 C122.48 10.9, 133.62 17.84, 141.59 25.84 C149.57 33.83, 155.88 44.11, 159.7 54.42 C163.52 64.73, 165.02 76.93, 164.51 87.72 C164 98.51, 161.77 109.25, 156.65 119.17 C151.54 129.09, 142.5 139.92, 133.82 147.25 C125.14 154.58, 115.15 160.41, 104.57 163.14 C93.99 165.88, 81.34 165.79, 70.34 163.65 C59.35 161.52, 48.08 156.5, 38.59 150.31 C29.11 144.13, 19.9 135.61, 13.41 126.56 C6.93 117.51, 1.42 106.79, -0.33 96.01 C-2.07 85.23, -0.32 72.77, 2.92 61.87 C6.16 50.97, 12.22 39.58, 19.11 30.62 C26.01 21.67, 40.03 11.49, 44.31 8.14 C48.59 4.79, 44.12 8.98, 44.8 10.54" stroke="none" stroke-width="0" fill="#ffc9c9"/><path d="M86.02 -0.25 C96.68 -0.75, 109.57 4.46, 119.7 9.4 C129.82 14.33, 139.63 20.77, 146.79 29.35 C153.96 37.94, 159.98 50.14, 162.68 60.92 C165.39 71.71, 164.75 82.94, 163.02 94.07 C161.28 105.2, 158.3 118.19, 152.29 127.71 C146.29 137.22, 136.49 145.03, 127 151.17 C117.51 157.3, 106.25 162.76, 95.36 164.52 C84.48 166.28, 72.33 164.75, 61.69 161.74 C51.04 158.73, 40.18 153.36, 31.52 146.47 C22.86 139.57, 15.03 130.43, 9.72 120.37 C4.4 110.31, 0.32 97.34, -0.38 86.09 C-1.09 74.83, 1.37 63.05, 5.49 52.84 C9.62 42.63, 16.4 32.87, 24.36 24.85 C32.32 16.83, 41.67 8.73, 53.26 4.73 C64.86 0.73, 85.65 0.9, 93.94 0.83 C102.22 0.77, 102.93 2.97, 102.95 4.33 M61.58 2.55 C71.43 -1.21, 84.79 -0.49, 96.09 1.57 C107.39 3.64, 119.8 8.66, 129.39 14.95 C138.98 21.23, 147.66 29.68, 153.62 39.28 C159.59 48.88, 164.1 61.43, 165.18 72.52 C166.26 83.61, 163.38 95.38, 160.08 105.83 C156.78 116.28, 152.27 126.74, 145.37 135.21 C138.47 143.67, 128.76 151.56, 118.68 156.62 C108.59 161.69, 96.34 165.37, 84.84 165.59 C73.34 165.8, 59.8 162.08, 49.69 157.91 C39.58 153.74, 31.47 148.44, 24.18 140.56 C16.89 132.69, 9.72 121.17, 5.97 110.67 C2.22 100.17, 1.18 88.66, 1.69 77.54 C2.2 66.42, 4.2 54.24, 9.04 43.94 C13.88 33.64, 21.67 22.89, 30.73 15.75 C39.79 8.6, 57.93 2.91, 63.39 1.06 C68.85 -0.79, 63.02 3.04, 63.49 4.67" stroke="#1e1e1e" stroke-width="2" fill="none"/></g><g stroke-opacity="0.7" fill-opacity="0.7" transform="translate(115.9544958627477 167.63340375072534) rotate(0 45.17289733886719 31.47616334774841)"><text x="45.17289733886719" y="0" font-family="Virgil, Segoe UI Emoji" font-size="25.18093067819872px" fill="#1e1e1e" text-anchor="middle" style="white-space: pre;" direction="ltr" dominant-baseline="text-before-edge">Energy </text><text x="45.17289733886719" y="31.4761633477484" font-family="Virgil, Segoe UI Emoji" font-size="25.18093067819872px" fill="#1e1e1e" text-anchor="middle" style="white-space: pre;" direction="ltr" dominant-baseline="text-before-edge">Use</text></g></svg>